# xmcd
#
# Track frame offsets:
#	182
#	10857
#	21595
#	31830
#	42527
#	51065
#	62880
#	73875
#	83017
#	91695
#	102470
#	111962
#	121187
#	130280
#	140335
#	149602
#	157080
#
# Disc length: 2217 seconds
#
# Revision: 0
# Processed by: cddbd v1.5.2PL0 Copyright (c) Steve Scherf et al.
# Submitted via: audiograbber 1.83.01
#
DISCID=f408a711
DTITLE=Fats Domino - The world of Fats Domino
DYEAR=1991
DGENRE=Pop
TTITLE0=Blueberry hill
TTITLE1=I want to walk you home
TTITLE2=Blue monday
TTITLE3=Jambalaya
TTITLE4=The fat man
TTITLE5=Red sails in the sunset
TTITLE6=Ain't that a shame
TTITLE7=Let the four winds blow
TTITLE8=Walking to New Orleans
TTITLE9=I'm ready
TTITLE10=My blue heaven
TTITLE11=I'm gonna be a wheel someday
TTITLE12=Be my guest
TTITLE13=Going' home
TTITLE14=I'm walking
TTITLE15=Whole lotta loving
TTITLE16=I'm in love again (Bonus track)
EXTD=
EXTT0=
EXTT1=
EXTT2=
EXTT3=
EXTT4=
EXTT5=
EXTT6=
EXTT7=
EXTT8=
EXTT9=
EXTT10=
EXTT11=
EXTT12=
EXTT13=
EXTT14=
EXTT15=
EXTT16=
PLAYORDER=
